<svg xmlns="http://www.w3.org/2000/svg" xmlns:xlink="http://www.w3.org/1999/xlink" viewBox="0 0 251.6 131.48"><defs><style>.cls-1{fill:url(#linear-gradient);}</style><linearGradient id="linear-gradient" x1="152.58" y1="138.09" x2="81.74" y2="-28.8" gradientUnits="userSpaceOnUse"><stop offset="0" stop-color="#4facfe"/><stop offset="1" stop-color="#00f2fe"/></linearGradient></defs><g id="Layer_2" data-name="Layer 2"><g id="Layer_1-2" data-name="Layer 1"><path class="cls-1" d="M179.26,124.69,119,70l45-40.79A20.68,20.68,0,0,0,165.37,0h0L104.78,54.93a20.34,20.34,0,0,0,0,30.14l45.27,41.05a20.68,20.68,0,0,0,29.21-1.43ZM0,124.69a20.69,20.69,0,0,0,29.22,1.43L74.48,85.07a20.34,20.34,0,0,0,0-30.14L13.89,0h0a20.68,20.68,0,0,0,1.43,29.21L60.31,70,0,124.69ZM190.69,39.23q.88-.61,3.3-2.07,5.85-3.44,10.22-6.54a41.46,41.46,0,0,0,7.88-7.29,14.65,14.65,0,0,0,3.72-8.81,12.26,12.26,0,0,0-4.68-10.43Q206.32.28,197.84,1a19.75,19.75,0,0,0-7.91,2.31,18.5,18.5,0,0,0-5.33,4.26,32.83,32.83,0,0,0-4,6.51l5,1.86a24.82,24.82,0,0,1,3-4.75A15,15,0,0,1,192.41,8a13.23,13.23,0,0,1,5.43-1.76q5.58-.48,8.54,1.76a7.18,7.18,0,0,1,2.75,6.5Q208.92,18,205,22.23a60.22,60.22,0,0,1-9,7.88q-5.13,3.68-14.49,9.12v5.3h34.35v-5.3Zm52.37-16.14a9.64,9.64,0,0,1,2.34,7,9.23,9.23,0,0,1-3.34,7,11.73,11.73,0,0,1-7.95,2.76,12.06,12.06,0,0,1-7-2.14,9.55,9.55,0,0,1-4-5.36h-6.19a14.2,14.2,0,0,0,5.85,9.15,18.47,18.47,0,0,0,11.35,3.65,19.07,19.07,0,0,0,8.71-2,16.3,16.3,0,0,0,6.3-5.44,14.11,14.11,0,0,0,2.47-7.64,14.71,14.71,0,0,0-3.5-10.39,12.63,12.63,0,0,0-9-4.54,10.32,10.32,0,0,0-4.54.69A25.69,25.69,0,0,0,230.4,18c-1.15.83-1.91,1.08-2.27.76s.58-1.76,2.58-4.3,5.61-6.83,10.84-12.84h-7.64Q221.79,17,220.28,19.41a4.49,4.49,0,0,1-.27.41,11.06,11.06,0,0,0-1.59,3.2,2.18,2.18,0,0,0,1,2.37,2.74,2.74,0,0,0,2.58.14,36,36,0,0,0,4.57-2.06,56.28,56.28,0,0,1,5.37-2.41,12,12,0,0,1,4.2-.83A9,9,0,0,1,243.06,23.09Z"/></g></g></svg>