<svg xmlns="http://www.w3.org/2000/svg" xmlns:xlink="http://www.w3.org/1999/xlink" viewBox="0 0 566.51 59.57"><defs><style>.cls-1{fill:url(#linear-gradient);}.cls-2{fill:url(#linear-gradient-2);}</style><linearGradient id="linear-gradient" x1="369.45" y1="130.83" x2="284.98" y2="-68.17" gradientUnits="userSpaceOnUse"><stop offset="0" stop-color="#4facfe"/><stop offset="1" stop-color="#00f2fe"/></linearGradient><linearGradient id="linear-gradient-2" x1="47.94" y1="50.62" x2="25.68" y2="-1.82" xlink:href="#linear-gradient"/></defs><g id="Layer_2" data-name="Layer 2"><g id="Layer_1-2" data-name="Layer 1"><path class="cls-1" d="M114.26,27.05a4.06,4.06,0,0,1-3.42-1.92,10.67,10.67,0,0,0-2.92-3,10.34,10.34,0,0,0-13.45,1.32,10.62,10.62,0,0,0-3.17,7.75,11,11,0,0,0,3.06,7.94,9,9,0,0,0,8,2.53,7.05,7.05,0,0,0,3.6-1.39,32.67,32.67,0,0,0,3.52-3.24,24.78,24.78,0,0,1,2.74-2.63,3.54,3.54,0,0,1,2.39-.79,3.92,3.92,0,0,1,3.63,1.89,9.82,9.82,0,0,1,1.31,4.38.91.91,0,0,1,0,.17A6.51,6.51,0,0,1,113.08,47h0a27.54,27.54,0,0,0,.5-4.84c0-.9-.36-1.32-.93-1.28a4.6,4.6,0,0,0-2.49,1.85,21.43,21.43,0,0,1-3.59,3.17A10.91,10.91,0,0,1,102,47.54a13.59,13.59,0,0,1-8.76-1.46A15.59,15.59,0,0,1,87,39.82a17.39,17.39,0,0,1-2.28-8.58A16.1,16.1,0,0,1,87,23a16.6,16.6,0,0,1,6.12-6.08,14.67,14.67,0,0,1,8.4-1.92A15.74,15.74,0,0,1,111.8,19.5v-10a6.33,6.33,0,0,1,6.33-6.34h0V23.28a3.76,3.76,0,0,1-3.76,3.77Zm8.46,2.34a2.53,2.53,0,0,1-2.4-3.35A15.38,15.38,0,0,1,125,19.29,17.91,17.91,0,0,1,136.22,15q7.75-.36,11.57,2.84a7.54,7.54,0,0,1,2.88,7.69,9.79,9.79,0,0,1-3.77,5,35.44,35.44,0,0,1-7,4.23q-2.29,1.07-5.65,2.35a2.53,2.53,0,0,0,.41,4.85,10.42,10.42,0,0,0,2.11.2,10.08,10.08,0,0,0,4.23-.85,11.7,11.7,0,0,0,3.1-2A14,14,0,0,0,145.38,38a2.54,2.54,0,0,1,3.35-.54h0a2.52,2.52,0,0,1,.58,3.72A20.8,20.8,0,0,1,147,43.52a17.92,17.92,0,0,1-4.63,2.81,15.26,15.26,0,0,1-6.19,1.21,16.53,16.53,0,0,1-8-2,17.24,17.24,0,0,1-6-5.34c-.08-.12-.16-.24-.23-.36a2.52,2.52,0,0,1,1.39-3.74q6-1.94,9.59-3.41a38.71,38.71,0,0,0,7.72-4.16C142.87,27,144,25.36,144,23.7c0-1.19-.73-2.07-2.17-2.67a11.73,11.73,0,0,0-5-.75,10.94,10.94,0,0,0-6.9,2.71,10.43,10.43,0,0,0-3.23,4.76,2.47,2.47,0,0,1-2.37,1.64ZM165.15,47,151.41,15.59h1.29a8.11,8.11,0,0,1,7.53,5.07l7.7,19L175.5,21a8.61,8.61,0,0,1,8-5.36h1L172.55,42.75A7,7,0,0,1,166.09,47ZM185.6,29.39A2.53,2.53,0,0,1,183.2,26a15.38,15.38,0,0,1,4.69-6.75A17.89,17.89,0,0,1,199.1,15q7.76-.36,11.56,2.84a7.53,7.53,0,0,1,2.89,7.69,9.79,9.79,0,0,1-3.77,5,35.44,35.44,0,0,1-7,4.23q-2.3,1.07-5.65,2.35a2.53,2.53,0,0,0,.4,4.85,10.59,10.59,0,0,0,2.12.2,10.12,10.12,0,0,0,4.23-.85,11.7,11.7,0,0,0,3.1-2A14,14,0,0,0,208.26,38a2.54,2.54,0,0,1,3.35-.54h0a2.53,2.53,0,0,1,.58,3.72,20.8,20.8,0,0,1-2.27,2.36,17.92,17.92,0,0,1-4.63,2.81,15.26,15.26,0,0,1-6.19,1.21,16.5,16.5,0,0,1-8-2,17.24,17.24,0,0,1-6-5.34c-.08-.12-.16-.24-.23-.36a2.52,2.52,0,0,1,1.39-3.74q6-1.94,9.59-3.41a38.71,38.71,0,0,0,7.72-4.16c2.2-1.57,3.31-3.18,3.31-4.84,0-1.19-.73-2.07-2.17-2.67a11.73,11.73,0,0,0-5-.75,10.94,10.94,0,0,0-6.9,2.71,10.43,10.43,0,0,0-3.23,4.76,2.48,2.48,0,0,1-2.37,1.64Zm37-26.19h0V40.64A6.32,6.32,0,0,1,216.24,47h0V9.54A6.33,6.33,0,0,1,222.57,3.2Zm19.31,44.41a16.73,16.73,0,0,1-8.43-2.2,16.52,16.52,0,0,1-6.13-5.95,16.06,16.06,0,0,1,0-16.36,16.26,16.26,0,0,1,6.13-5.91A16.91,16.91,0,0,1,241.88,15a16.65,16.65,0,0,1,8.33,2.17,16.27,16.27,0,0,1,6.08,5.94,15.69,15.69,0,0,1,2.24,8.19,15.47,15.47,0,0,1-2.24,8.14,16.77,16.77,0,0,1-14.41,8.15Zm0-27.25a9.83,9.83,0,0,0-7.4,3.2,10.81,10.81,0,0,0-3.06,7.76A10.71,10.71,0,0,0,234.48,39a10.05,10.05,0,0,0,14.73,0,10.71,10.71,0,0,0,3.06-7.68,10.81,10.81,0,0,0-3.06-7.76A9.76,9.76,0,0,0,241.88,20.36Zm22.77,15.37A5.41,5.41,0,0,1,269.08,38a10.49,10.49,0,0,0,2.69,2.62,10.3,10.3,0,0,0,13.45-1.35,10.67,10.67,0,0,0,3.17-7.72,11,11,0,0,0-3.06-7.94,9,9,0,0,0-8.05-2.52,7,7,0,0,0-3.59,1.38,33.85,33.85,0,0,0-3.52,3.24,25,25,0,0,1-2.74,2.64,3.48,3.48,0,0,1-2.39.78,3.92,3.92,0,0,1-3.63-1.89,9.63,9.63,0,0,1-1.32-4.37.91.91,0,0,0,0-.17,6.53,6.53,0,0,1,6.53-6.88h0a25.85,25.85,0,0,0-.5,4.8c.05.93.35,1.37.92,1.32a4.53,4.53,0,0,0,2.5-1.85,21.43,21.43,0,0,1,3.59-3.17,11,11,0,0,1,4.59-1.67,13.16,13.16,0,0,1,8.75,1.42,16,16,0,0,1,6.27,6.27A17.27,17.27,0,0,1,295,31.53a16.09,16.09,0,0,1-2.27,8.29,16.55,16.55,0,0,1-6.12,6.09,14.7,14.7,0,0,1-8.4,1.92,15.59,15.59,0,0,1-10.32-4.63v10a6.33,6.33,0,0,1-6.34,6.33h0V38.82a3.09,3.09,0,0,1,3.1-3.09Zm34.43-6.34a2.53,2.53,0,0,1-2.4-3.35,15.38,15.38,0,0,1,4.69-6.75A17.91,17.91,0,0,1,312.58,15q7.76-.36,11.57,2.84A7.52,7.52,0,0,1,327,25.48a9.79,9.79,0,0,1-3.77,5,35.44,35.44,0,0,1-7,4.23q-2.29,1.07-5.65,2.35a2.53,2.53,0,0,0,.41,4.85,10.42,10.42,0,0,0,2.11.2,10.16,10.16,0,0,0,4.24-.85,11.8,11.8,0,0,0,3.09-2A12.85,12.85,0,0,0,321.75,38a2.53,2.53,0,0,1,3.34-.54h0a2.52,2.52,0,0,1,.58,3.72,20.8,20.8,0,0,1-2.27,2.36,17.75,17.75,0,0,1-4.63,2.81,15.26,15.26,0,0,1-6.19,1.21,16.53,16.53,0,0,1-8-2,17.32,17.32,0,0,1-6.05-5.34c-.08-.12-.16-.24-.23-.36a2.52,2.52,0,0,1,1.39-3.74q6-1.94,9.59-3.41A38.71,38.71,0,0,0,317,28.54q3.32-2.36,3.31-4.84c0-1.19-.72-2.07-2.17-2.67a11.73,11.73,0,0,0-5-.75,10.94,10.94,0,0,0-6.9,2.71A10.43,10.43,0,0,0,303,27.75a2.47,2.47,0,0,1-2.37,1.64Zm57.26-2.62c-6.95-.77-7-5.42-8.26-5.56-1.47-.14-2.92,1-4.34,3.38A43.65,43.65,0,0,0,340,33.13a79.9,79.9,0,0,0-2.09,9.71c-.65,4-4.46,4.35-8.16,4.35h0V22.13a6.34,6.34,0,0,1,6.33-6.33h0V32.1a60.21,60.21,0,0,1,3.38-9.18,19.11,19.11,0,0,1,4.1-5.52,7.46,7.46,0,0,1,5.76-2.1,6.15,6.15,0,0,1,5.31,3.45,14.9,14.9,0,0,1,1.74,7.16M388.1,41.32a3.29,3.29,0,0,0,1.46-3.67,3.5,3.5,0,0,0-2.28-2.17,42.63,42.63,0,0,0-5.62-1.67,68.17,68.17,0,0,1-6.69-2A13.53,13.53,0,0,1,370.35,29a7.51,7.51,0,0,1,1.42-11.89q4-2.62,10.82-2.13a18.38,18.38,0,0,1,6,1.14,18.71,18.71,0,0,1,4.19,2.17,20,20,0,0,1,3.42,3.23h0a6.29,6.29,0,0,1-7.21.27,9.12,9.12,0,0,0-1.19-.69,13.52,13.52,0,0,0-5.12-1.28,12.3,12.3,0,0,0-5.62.64c-1.57.61-2.28,1.59-2.14,2.92a3,3,0,0,0,2,2.42,42.08,42.08,0,0,0,5.94,1.92,68.93,68.93,0,0,1,6.69,2.06,13.91,13.91,0,0,1,4.63,2.88,7.22,7.22,0,0,1,2.2,4.95,7.69,7.69,0,0,1-3.95,7.69,18.35,18.35,0,0,1-10.78,2.13,21.74,21.74,0,0,1-6.3-1.24A18.19,18.19,0,0,1,371,44a19.31,19.31,0,0,1-3.45-3.45l1.13-.74a4.81,4.81,0,0,1,5.42.13h0a12.93,12.93,0,0,0,3,1.53,15.57,15.57,0,0,0,4.34.93Q386.08,42.85,388.1,41.32Zm40.7-25.8h0v25a6.41,6.41,0,0,1-6.41,6.4h0V30a56.12,56.12,0,0,1-3.73,9.9,17.78,17.78,0,0,1-4.81,5.76A8.45,8.45,0,0,1,407,47.4q-7.47-1.07-7.47-15V21.85a6.32,6.32,0,0,1,6.33-6.33h0V32a29.27,29.27,0,0,0,.93,7.26c.47,1.42,1.23,2.18,2.27,2.27q2.72.28,5.16-3.31a37.58,37.58,0,0,0,4.24-8.54c.75-2.1,1.57-4.78,2.44-8A8.24,8.24,0,0,1,428.8,15.52ZM452.55,47V26q0-4.77-1.86-5c-1.47-.15-2.91,1-4.34,3.38a43.38,43.38,0,0,0-3.77,8.54,54.78,54.78,0,0,0-1.65,8.46C440.29,48,436,47,432.33,47h0v-25a6.33,6.33,0,0,1,6.34-6.33h0V31.81a59.62,59.62,0,0,1,3.38-9.11,19.17,19.17,0,0,1,4.09-5.51,7.46,7.46,0,0,1,5.76-2.1,6.14,6.14,0,0,1,5.31,3.41A14.85,14.85,0,0,1,459,25.69v6.12a47.12,47.12,0,0,1,4.27-11c2.14-4.12,5.1-6.05,8.9-5.76a6.1,6.1,0,0,1,5.34,3.41,15.17,15.17,0,0,1,1.7,7.19v15A6.32,6.32,0,0,1,472.83,47h0V26q0-4.77-1.92-5c-1.43-.15-2.85,1-4.27,3.34a42.34,42.34,0,0,0-3.77,8.47c-1.1,3.27-2.62,8.7-2.62,8.72a7.23,7.23,0,0,1-7,5.44Zm50.36,0V26q0-4.77-1.85-5-2.21-.22-4.34,3.38A42.8,42.8,0,0,0,493,32.92a52.51,52.51,0,0,0-1.65,8.46c-.65,6.6-4.9,5.59-8.6,5.59h0v-25A6.32,6.32,0,0,1,489,15.59h0V31.81a60.7,60.7,0,0,1,3.38-9.11,19,19,0,0,1,4.1-5.51,7.46,7.46,0,0,1,5.76-2.1,6.12,6.12,0,0,1,5.3,3.41,14.86,14.86,0,0,1,1.75,7.19v6.12a46.68,46.68,0,0,1,4.27-11c2.13-4.12,5.1-6.05,8.89-5.76a6.1,6.1,0,0,1,5.34,3.41,15.06,15.06,0,0,1,1.71,7.19v15A6.33,6.33,0,0,1,523.19,47h0V26q0-4.77-1.92-5c-1.42-.15-2.84,1-4.27,3.34a42.92,42.92,0,0,0-3.77,8.47c-1.09,3.27-2.61,8.7-2.62,8.72a7.23,7.23,0,0,1-7,5.44ZM533.26,9.79a3.62,3.62,0,0,1-1.17-2.73,4,4,0,0,1,4-3.93,4.07,4.07,0,0,1,2.82,1.15,3.7,3.7,0,0,1,1.17,2.77,3.62,3.62,0,0,1-1.17,2.74,4.15,4.15,0,0,1-5.63,0ZM533,47h0a6.4,6.4,0,0,0,6.41-6.4v-25h0A6.4,6.4,0,0,0,533,22Zm24.46-25.19V37.72a4.34,4.34,0,0,0,1.36,3.63,14.46,14.46,0,0,0,3.83,1.36,4.59,4.59,0,0,1,3.85,4.48l-1.42.21c-1,.09-1.83.14-2.49.14a13.05,13.05,0,0,1-8-2.27,8.85,8.85,0,0,1-3.42-7.55V20.57a22.48,22.48,0,0,0-4-.21,38.06,38.06,0,0,0-4.8.53.19.19,0,0,1-.22-.19h0A9.13,9.13,0,0,1,546,13.43a13.78,13.78,0,0,0,2.15-2,15.47,15.47,0,0,0,3-5,13.9,13.9,0,0,0,.42-1.49A6.47,6.47,0,0,1,557.9,0h0a20.76,20.76,0,0,1-2,9.57,15.39,15.39,0,0,1-5.16,6,38.31,38.31,0,0,1,8.22.89,11.11,11.11,0,0,1,3.7,1.65,2.37,2.37,0,0,1,1,1.94v1.42a1.84,1.84,0,0,1-2.71,1.62h0A16.79,16.79,0,0,0,557.47,21.78Z"/><path class="cls-2" d="M56.33,46.41,37.38,29.23,51.52,16.41A6.5,6.5,0,0,0,52,7.23h0l-19,17.26a6.39,6.39,0,0,0,0,9.47l14.22,12.9a6.5,6.5,0,0,0,9.18-.45ZM0,46.41a6.5,6.5,0,0,0,9.18.45L23.4,34a6.39,6.39,0,0,0,0-9.47L4.37,7.23h0a6.5,6.5,0,0,0,.44,9.18L19,29.23,0,46.41ZM59.92,19.56c.19-.13.53-.35,1-.65,1.22-.72,2.29-1.41,3.21-2.06a13.1,13.1,0,0,0,2.48-2.29,4.6,4.6,0,0,0,1.16-2.77,3.83,3.83,0,0,0-1.47-3.27,5.78,5.78,0,0,0-4.17-1,6.21,6.21,0,0,0-2.49.73A5.75,5.75,0,0,0,58,9.6a9.81,9.81,0,0,0-1.25,2l1.58.58a8.1,8.1,0,0,1,.93-1.49,4.55,4.55,0,0,1,1.19-1,4.06,4.06,0,0,1,1.71-.55,3.81,3.81,0,0,1,2.68.55,2.27,2.27,0,0,1,.87,2,4.19,4.19,0,0,1-1.29,2.42,19.11,19.11,0,0,1-2.83,2.48Q60,17.85,57,19.56v1.66h10.8V19.56Zm16.46-5.08a3,3,0,0,1,.73,2.2,2.94,2.94,0,0,1-1,2.21,3.71,3.71,0,0,1-2.49.86,3.77,3.77,0,0,1-2.21-.67,3,3,0,0,1-1.25-1.69h-2A4.43,4.43,0,0,0,70,20.27a5.82,5.82,0,0,0,3.57,1.15,6,6,0,0,0,2.73-.63,5.16,5.16,0,0,0,2-1.71,4.45,4.45,0,0,0,.78-2.4A4.66,4.66,0,0,0,78,13.41,4,4,0,0,0,75.12,12a3.22,3.22,0,0,0-1.42.21,9.15,9.15,0,0,0-1.3.69q-.54.39-.72.24c-.08-.1.19-.55.82-1.35s1.76-2.14,3.4-4H73.5c-2.54,3.21-4,5.07-4.28,5.58l-.09.13a3.69,3.69,0,0,0-.5,1,.7.7,0,0,0,.31.75.86.86,0,0,0,.81,0,10.65,10.65,0,0,0,1.44-.65,17.31,17.31,0,0,1,1.68-.75,3.64,3.64,0,0,1,1.32-.26A2.84,2.84,0,0,1,76.38,14.48Z"/></g></g></svg>