<svg xmlns="http://www.w3.org/2000/svg" xmlns:xlink="http://www.w3.org/1999/xlink" viewBox="0 0 481.83 162.8"><defs><style>.cls-1{fill:url(#linear-gradient);}.cls-2{fill:url(#linear-gradient-2);}</style><linearGradient id="linear-gradient" x1="284.77" y1="234.06" x2="200.3" y2="35.06" gradientUnits="userSpaceOnUse"><stop offset="0" stop-color="#4facfe"/><stop offset="1" stop-color="#00f2fe"/></linearGradient><linearGradient id="linear-gradient-2" x1="261.54" y1="75.34" x2="222.89" y2="-15.71" xlink:href="#linear-gradient"/></defs><g id="Layer_2" data-name="Layer 2"><g id="Layer_1-2" data-name="Layer 1"><path class="cls-1" d="M29.57,130.27a4.1,4.1,0,0,1-3.42-1.91,10.53,10.53,0,0,0-2.91-3,10.34,10.34,0,0,0-5.95-1.88,10.21,10.21,0,0,0-7.5,3.2,10.6,10.6,0,0,0-3.17,7.76,11,11,0,0,0,3.06,7.93,8.92,8.92,0,0,0,8,2.53,6.88,6.88,0,0,0,3.6-1.39,33.51,33.51,0,0,0,3.52-3.23,23.31,23.31,0,0,1,2.74-2.64,3.45,3.45,0,0,1,2.38-.78,3.94,3.94,0,0,1,3.63,1.88,9.71,9.71,0,0,1,1.32,4.38c0,.06,0,.12,0,.18a6.52,6.52,0,0,1-6.52,6.87h0a27.71,27.71,0,0,0,.5-4.84c0-.9-.36-1.33-.93-1.28a4.55,4.55,0,0,0-2.49,1.85,21.75,21.75,0,0,1-3.59,3.16,10.9,10.9,0,0,1-4.6,1.68,13.7,13.7,0,0,1-8.75-1.46,15.65,15.65,0,0,1-6.26-6.26A17.39,17.39,0,0,1,0,134.47a16.08,16.08,0,0,1,2.28-8.29,16.55,16.55,0,0,1,6.12-6.09,14.67,14.67,0,0,1,8.4-1.92,15.79,15.79,0,0,1,10.32,4.56v-10a6.32,6.32,0,0,1,6.33-6.33h0V126.5a3.76,3.76,0,0,1-3.76,3.77ZM38,132.62a2.53,2.53,0,0,1-2.39-3.35,15.41,15.41,0,0,1,4.69-6.76,18,18,0,0,1,11.21-4.34q7.76-.36,11.56,2.85A7.51,7.51,0,0,1,66,128.7a9.76,9.76,0,0,1-3.78,5,35.11,35.11,0,0,1-7,4.24c-1.53.7-3.41,1.49-5.65,2.35a2.53,2.53,0,0,0,.4,4.85,11.29,11.29,0,0,0,2.12.2,10.15,10.15,0,0,0,4.23-.86,12,12,0,0,0,3.1-1.95,14.19,14.19,0,0,0,1.26-1.35,2.54,2.54,0,0,1,3.35-.53h0a2.51,2.51,0,0,1,.58,3.71,21,21,0,0,1-2.27,2.37,18.49,18.49,0,0,1-4.63,2.81,15.43,15.43,0,0,1-6.19,1.21,16.51,16.51,0,0,1-8-2,17.11,17.11,0,0,1-6-5.33l-.23-.37a2.52,2.52,0,0,1,1.38-3.74q6-1.92,9.59-3.4A38.54,38.54,0,0,0,56,131.76c2.2-1.56,3.31-3.17,3.31-4.84,0-1.18-.73-2.07-2.17-2.66a11.45,11.45,0,0,0-5-.75,10.92,10.92,0,0,0-6.91,2.7A10.46,10.46,0,0,0,42,131a2.49,2.49,0,0,1-2.37,1.65ZM80.47,150.2,66.73,118.81H68a8.13,8.13,0,0,1,7.53,5.07l7.69,19,7.58-18.69a8.58,8.58,0,0,1,8-5.37h1L87.87,146a7.06,7.06,0,0,1-6.46,4.22Zm20.44-17.58a2.53,2.53,0,0,1-2.39-3.35,15.41,15.41,0,0,1,4.69-6.76,18,18,0,0,1,11.21-4.34q7.76-.36,11.56,2.85a7.51,7.51,0,0,1,2.89,7.68,9.76,9.76,0,0,1-3.78,5,35.4,35.4,0,0,1-7,4.24c-1.53.7-3.41,1.49-5.65,2.35a2.53,2.53,0,0,0,.4,4.85,11.29,11.29,0,0,0,2.12.2,10.15,10.15,0,0,0,4.23-.86,12,12,0,0,0,3.1-1.95,14.19,14.19,0,0,0,1.26-1.35,2.54,2.54,0,0,1,3.35-.53h0a2.51,2.51,0,0,1,.58,3.71,21,21,0,0,1-2.27,2.37,18.49,18.49,0,0,1-4.63,2.81,15.43,15.43,0,0,1-6.19,1.21,16.51,16.51,0,0,1-8-2,17.11,17.11,0,0,1-6-5.33l-.23-.37a2.52,2.52,0,0,1,1.38-3.74q6-1.92,9.59-3.4a38.54,38.54,0,0,0,7.73-4.17c2.2-1.56,3.31-3.17,3.31-4.84,0-1.18-.73-2.07-2.18-2.66a11.39,11.39,0,0,0-5-.75,10.92,10.92,0,0,0-6.91,2.7,10.46,10.46,0,0,0-3.22,4.76,2.49,2.49,0,0,1-2.37,1.65Zm37-26.19h0v37.43a6.34,6.34,0,0,1-6.33,6.34h0V112.76A6.32,6.32,0,0,1,137.89,106.43Zm19.31,44.41a16.81,16.81,0,0,1-8.44-2.21,16.61,16.61,0,0,1-6.12-5.94,16.07,16.07,0,0,1,0-16.37,16.38,16.38,0,0,1,6.12-5.91,17.08,17.08,0,0,1,8.44-2.17,16.69,16.69,0,0,1,8.32,2.17,16.25,16.25,0,0,1,6.09,6,15.75,15.75,0,0,1,2.24,8.18,15.6,15.6,0,0,1-2.24,8.15,16.61,16.61,0,0,1-6.09,5.94A16.42,16.42,0,0,1,157.2,150.84Zm0-27.26a9.89,9.89,0,0,0-7.41,3.2,11.28,11.28,0,0,0,0,15.45,10.09,10.09,0,0,0,14.74,0,11.28,11.28,0,0,0,0-15.45A9.81,9.81,0,0,0,157.2,123.58ZM180,139a5.41,5.41,0,0,1,4.43,2.25,10.53,10.53,0,0,0,2.69,2.63,10.34,10.34,0,0,0,13.45-1.35,10.68,10.68,0,0,0,3.16-7.73,11,11,0,0,0-3.06-7.93,9,9,0,0,0-8-2.53,6.93,6.93,0,0,0-3.59,1.39,32.65,32.65,0,0,0-3.53,3.24,23.93,23.93,0,0,1-2.74,2.63,3.45,3.45,0,0,1-2.38.78,3.92,3.92,0,0,1-3.63-1.88,9.71,9.71,0,0,1-1.32-4.38c0-.06,0-.11,0-.17a6.53,6.53,0,0,1,6.53-6.88h0a25,25,0,0,0-.5,4.81c0,.92.35,1.36.92,1.32a4.65,4.65,0,0,0,2.49-1.85,21.42,21.42,0,0,1,3.6-3.17,11,11,0,0,1,4.59-1.68,13.18,13.18,0,0,1,8.75,1.43,15.93,15.93,0,0,1,6.27,6.26,17.43,17.43,0,0,1,2.27,8.61,16.2,16.2,0,0,1-2.27,8.3,16.55,16.55,0,0,1-6.13,6.08,14.65,14.65,0,0,1-8.39,1.92,15.63,15.63,0,0,1-10.32-4.62v10a6.34,6.34,0,0,1-6.34,6.34h0V142.05A3.1,3.1,0,0,1,180,139Zm34.43-6.33a2.53,2.53,0,0,1-2.4-3.35,15.41,15.41,0,0,1,4.69-6.76,18,18,0,0,1,11.21-4.34q7.75-.36,11.56,2.85a7.51,7.51,0,0,1,2.89,7.68,9.79,9.79,0,0,1-3.77,5,35.48,35.48,0,0,1-7,4.24c-1.53.7-3.41,1.49-5.65,2.35a2.53,2.53,0,0,0,.4,4.85,11.37,11.37,0,0,0,2.12.2,10.12,10.12,0,0,0,4.23-.86,12,12,0,0,0,3.1-1.95,14.19,14.19,0,0,0,1.26-1.35,2.54,2.54,0,0,1,3.35-.53h0a2.51,2.51,0,0,1,.58,3.71,21,21,0,0,1-2.27,2.37,18.49,18.49,0,0,1-4.63,2.81,15.43,15.43,0,0,1-6.19,1.21,16.51,16.51,0,0,1-8-2,17.11,17.11,0,0,1-6.05-5.33l-.23-.37a2.52,2.52,0,0,1,1.39-3.74q6-1.92,9.59-3.4a38.73,38.73,0,0,0,7.72-4.17c2.2-1.56,3.31-3.17,3.31-4.84,0-1.18-.73-2.07-2.17-2.66a11.43,11.43,0,0,0-5-.75,10.88,10.88,0,0,0-6.9,2.7,10.48,10.48,0,0,0-3.23,4.76,2.49,2.49,0,0,1-2.37,1.65ZM271.66,130c-7-.77-7-5.41-8.26-5.56q-2.2-.21-4.34,3.38a43.32,43.32,0,0,0-3.77,8.54,78.44,78.44,0,0,0-2.09,9.71c-.65,4-4.46,4.35-8.16,4.35h0v-25a6.33,6.33,0,0,1,6.33-6.34h0v16.3a61,61,0,0,1,3.38-9.18,19,19,0,0,1,4.1-5.51,7.39,7.39,0,0,1,5.76-2.1,6.11,6.11,0,0,1,5.3,3.45,14.87,14.87,0,0,1,1.75,7.15m31.76,15.41a3.28,3.28,0,0,0,1.46-3.67,3.53,3.53,0,0,0-2.28-2.17A46.54,46.54,0,0,0,297,137a64.76,64.76,0,0,1-6.69-2,13.42,13.42,0,0,1-4.63-2.81,7.51,7.51,0,0,1,1.43-11.88q4-2.64,10.81-2.14a18.82,18.82,0,0,1,6,1.14,19.44,19.44,0,0,1,4.2,2.17,20.12,20.12,0,0,1,3.42,3.24h0a6.31,6.31,0,0,1-7.21.26,11.94,11.94,0,0,0-6.31-2,12.48,12.48,0,0,0-5.63.64c-1.56.62-2.27,1.59-2.13,2.92a3,3,0,0,0,2,2.42,40,40,0,0,0,5.94,1.92,67.61,67.61,0,0,1,6.69,2.07,13.69,13.69,0,0,1,4.63,2.88,7.24,7.24,0,0,1,2.2,4.94,7.69,7.69,0,0,1-3.95,7.69q-4.31,2.56-10.78,2.14a21.73,21.73,0,0,1-6.3-1.25,18,18,0,0,1-4.41-2.28,19.31,19.31,0,0,1-3.45-3.45l1.12-.73a4.79,4.79,0,0,1,5.42.13h0a14,14,0,0,0,3,1.53,16,16,0,0,0,4.34.92Q301.4,146.07,303.42,144.54Zm40.7-25.8h0v25a6.41,6.41,0,0,1-6.41,6.41h0V133.26a56,56,0,0,1-3.73,9.89,18,18,0,0,1-4.81,5.77,8.48,8.48,0,0,1-6.9,1.7q-7.47-1.06-7.48-15V125.07a6.34,6.34,0,0,1,6.34-6.33h0v16.44a29.74,29.74,0,0,0,.92,7.26q.72,2.13,2.28,2.28c1.8.19,3.53-.92,5.16-3.31a37.79,37.79,0,0,0,4.24-8.54c.75-2.11,1.57-4.78,2.44-8A8.23,8.23,0,0,1,344.12,118.74Zm23.74,31.46v-21c0-3.18-.61-4.84-1.85-5-1.47-.14-2.91,1-4.34,3.38a43.65,43.65,0,0,0-3.77,8.54,52.62,52.62,0,0,0-1.65,8.47c-.65,6.59-4.9,5.59-8.6,5.59h0v-25a6.34,6.34,0,0,1,6.33-6.34h0V135a59.72,59.72,0,0,1,3.39-9.11,18.9,18.9,0,0,1,4.09-5.52,7.46,7.46,0,0,1,5.76-2.1,6.14,6.14,0,0,1,5.31,3.42,14.79,14.79,0,0,1,1.74,7.19V135a46.51,46.51,0,0,1,4.27-11q3.19-6.19,8.9-5.77a6.06,6.06,0,0,1,5.33,3.42,15,15,0,0,1,1.71,7.19v14.94a6.33,6.33,0,0,1-6.33,6.34h0v-21q0-4.77-1.92-5c-1.43-.14-2.85,1-4.27,3.35a42.24,42.24,0,0,0-3.78,8.46c-1.09,3.28-2.61,8.7-2.61,8.73a7.25,7.25,0,0,1-7,5.44Zm50.37,0v-21q0-4.77-1.85-5-2.2-.21-4.34,3.38a43.64,43.64,0,0,0-3.78,8.54,54.9,54.9,0,0,0-1.65,8.47c-.64,6.59-4.9,5.59-8.59,5.59h0v-25a6.33,6.33,0,0,1,6.33-6.34h0V135a59.87,59.87,0,0,1,3.38-9.11,19.08,19.08,0,0,1,4.09-5.52,7.48,7.48,0,0,1,5.77-2.1,6.11,6.11,0,0,1,5.3,3.42,14.79,14.79,0,0,1,1.74,7.19V135a47.4,47.4,0,0,1,4.27-11q3.21-6.19,8.9-5.77a6.09,6.09,0,0,1,5.34,3.42,15,15,0,0,1,1.71,7.19v14.94a6.34,6.34,0,0,1-6.34,6.34h0v-21q0-4.77-1.92-5c-1.42-.14-2.85,1-4.27,3.35a42.82,42.82,0,0,0-3.77,8.46c-1.09,3.28-2.61,8.7-2.62,8.73a7.23,7.23,0,0,1-7,5.44ZM448.58,113a3.59,3.59,0,0,1-1.17-2.73,3.93,3.93,0,0,1,4-3.92,4.06,4.06,0,0,1,2.82,1.14,3.72,3.72,0,0,1,1.17,2.77,3.61,3.61,0,0,1-1.17,2.74,4.15,4.15,0,0,1-5.63,0Zm-.25,37.19h0a6.41,6.41,0,0,0,6.41-6.41v-25h0a6.41,6.41,0,0,0-6.41,6.41ZM472.79,125V141a4.39,4.39,0,0,0,1.35,3.63,14.59,14.59,0,0,0,3.83,1.36,4.58,4.58,0,0,1,3.86,4.47l-1.42.21q-1.5.15-2.49.15a13,13,0,0,1-8-2.28,8.85,8.85,0,0,1-3.41-7.54V123.79a22.48,22.48,0,0,0-4-.21,40,40,0,0,0-4.8.53.19.19,0,0,1-.22-.18h0a9.14,9.14,0,0,1,3.79-7.28,13.73,13.73,0,0,0,2.15-2,15.61,15.61,0,0,0,3-5c.15-.46.29-.95.42-1.49a6.49,6.49,0,0,1,6.34-4.92h0a20.83,20.83,0,0,1-2,9.58,15.36,15.36,0,0,1-5.16,6,39,39,0,0,1,8.22.89,11.12,11.12,0,0,1,3.7,1.66,2.35,2.35,0,0,1,1,1.93v1.43a1.83,1.83,0,0,1-2.71,1.61h0A16.79,16.79,0,0,0,472.79,125Z"/><path class="cls-2" d="M276.1,68,243.19,38.19l24.55-22.25A11.3,11.3,0,0,0,268.52,0h0L235.46,30a11.11,11.11,0,0,0,0,16.45l24.7,22.39A11.28,11.28,0,0,0,276.1,68Zm-97.81,0a11.28,11.28,0,0,0,15.94.78l24.7-22.39a11.11,11.11,0,0,0,0-16.45L185.87,0h0a11.28,11.28,0,0,0,.78,15.94L211.2,38.19,178.29,68Zm104-46.63c.33-.22.93-.6,1.8-1.12,2.13-1.26,4-2.44,5.58-3.57a22.79,22.79,0,0,0,4.3-4,8,8,0,0,0,2-4.81,6.69,6.69,0,0,0-2.56-5.69C291.73.84,289.32.28,286.24.52a10.83,10.83,0,0,0-4.32,1.26A10.17,10.17,0,0,0,279,4.11a17.2,17.2,0,0,0-2.16,3.55l2.74,1a13.82,13.82,0,0,1,1.61-2.59,8.59,8.59,0,0,1,2.07-1.71,7.17,7.17,0,0,1,3-1,6.61,6.61,0,0,1,4.65,1,3.94,3.94,0,0,1,1.51,3.55,7.25,7.25,0,0,1-2.24,4.21,32.47,32.47,0,0,1-4.92,4.3q-2.79,2-7.9,5v2.89h18.73V21.4Zm28.57-8.8a5.2,5.2,0,0,1,1.28,3.81,5,5,0,0,1-1.82,3.83,6.42,6.42,0,0,1-4.34,1.5,6.66,6.66,0,0,1-3.83-1.16A5.22,5.22,0,0,1,300,17.65h-3.38a7.73,7.73,0,0,0,3.19,5,10,10,0,0,0,6.19,2,10.34,10.34,0,0,0,4.75-1.09,8.87,8.87,0,0,0,3.44-3,7.72,7.72,0,0,0,1.35-4.17,8.09,8.09,0,0,0-1.91-5.67,6.9,6.9,0,0,0-4.92-2.48,5.64,5.64,0,0,0-2.48.38A13.76,13.76,0,0,0,304,9.84c-.63.45-1,.59-1.24.41s.32-1,1.4-2.35,3.07-3.72,5.92-7h-4.17q-6.62,8.37-7.43,9.69l-.15.22a6.25,6.25,0,0,0-.87,1.75,1.19,1.19,0,0,0,.53,1.29,1.48,1.48,0,0,0,1.41.08,20.9,20.9,0,0,0,2.49-1.13c1.16-.57,2.13-1,2.93-1.31a6.55,6.55,0,0,1,2.29-.45A4.87,4.87,0,0,1,310.9,12.6Z"/></g></g></svg>